<svg id="レイヤー_1" xmlns="http://www.w3.org/2000/svg" viewBox="0 0 265 40"><style>.st0{fill:#ba8f52}.st1{fill:#296884}.st2{fill:#4c4c4e}</style><path class="st0" d="M8.9 2.4C8 1.9 6.7 1.3 5.4 1.3 3 1.3.7 2.9.5 6.1.4 8 1.8 9.8 4.1 11.5c6.5 4.8 15.1 10 30.1 28.3h.7C28.3 23.4 15.6 6.5 8.9 2.4"/><path class="st1" d="M62.3.2C51.9 8.4 40.1 25.3 34.5 39.8h.7C49.9 21.7 57.3 17.2 69.8 8.3L62.3.2"/><path class="st2" d="M87.5 22l-1.5-.9v.1c-1.1 2.1-2 3.1-3.5 4.3l-.1.1 1.2 1.5.1-.1c2.3-2 2.9-3.2 3.5-4.5l.3-.5M91.6 8h-1.8v1.9h-7.7v1.9h17.2v-2h-7.7V8"/><path class="st2" d="M97.5 13.3H84.1v7h5.8v4.2c0 .5 0 .5-.5.5h-2.3l.3 2H90c1.4 0 1.6-.9 1.6-1.9v-4.8h5.9v-7m-1.7 1.8v3.4h-10v-3.4h10z"/><path class="st2" d="M95.4 21.2l-.2-.2h-.1l-1.4 1 .5.8c1.1 1.8 1.8 2.9 3.7 4.2l.1.1 1.1-1.7-.1-.1c-1.7-1.1-2.3-2-3.6-4.1M113.7 9.1c-.2.5-.5 1.1-.9 1.9v-1h-2.6V8h-1.6v2h-3.1v1.7h3.1v2.6H105V16h4.2c-1.9 1.9-3.7 2.7-4.4 3.1h-.1l.7 1.6s1-.5 1.2-.7v7h1.6v-.7h5.7v-8.8h-4l1.6-1.6h3.4v-1.7h-2.1c1.2-1.8 2-3.3 2.6-4.6v-.1l-1.5-.7-.2.3m-1.3 2.5c-.6 1.1-1.2 1.9-1.8 2.6h-.5v-2.6h2.3zm-.1 7.5v2h-4.2v-2h4.2zm0 3.6v2.1h-4.2v-2.1h4.2zM121.7 10.2V8.5h-6.3V27h1.7V10.2h2.8c-.7 2.4-1.1 3.5-2.3 5.9v.1c2.7 3 2.6 5.3 2.6 6.5 0 .8-.1 1.3-.4 1.6-.3.3-.6.3-1 .3h-1.4l.2 1.9h1.4c.8 0 3 0 3-3.7 0-2.3-.6-4.9-2.5-6.9 1.5-3.3 2-4.9 2.2-5.7M137.6 11h6.8V9.1h-15.6V11h6.7v13.1H128V26h17.2v-1.9h-7.6V11M156.1 13.2h1.7v-1.8h4.6v1.8h1.7v-1.8h4.4V9.6h-4.4V8h-1.7v1.6h-4.6V8h-1.7v1.6h-4.3v1.8h4.3v1.8M166 21.1l-1.7.4 1.3 2.6s-9.4.5-9.7.5c.1-.3 2.3-4.6 2.4-4.7h10.3v-1.8h-16.7v1.8h4.5c-.1.3-2.3 4.7-2.4 4.8-.1 0-1.7.1-1.7.1l.6 2 14-.9.1 1.1 1.7-.3c-1.2-3.1-2.7-5.6-2.7-5.6M152.9 16.1h14.3v-1.8h-14.3v1.8M241.5 25.1c-3.2-.9-6.7-2-7.5-10.3h7.4v-1.9h-7.5V8.1h-2.2v4.8h-7.5v1.9h7.4c-.8 8.3-4.4 9.4-7.5 10.3h-.1l.4 1.9h.1c5.2-1.3 7.7-4.9 8.2-9.1.5 4.2 3 7.9 8.2 9.1h.1l.5-1.9M256.8 19.4c1.3-.7 3-1.8 4.5-3.3v-1.5h-11v1.7h8.3c-1 .9-2.2 1.5-2.7 1.8H255.1v1.7h-7.6v1.7h7.6v3.1c0 .4 0 .5-.5.5h-2.7l.3 1.9h3.1c.4 0 1.6-.1 1.6-1.7v-3.9h7.4v-1.7h-7.4c-.1-.1-.1-.2-.1-.3"/><path class="st2" d="M261.6 11.2c.1-.2.4-.7.4-.7.3-.5.6-1 .9-1.6v-.1l-1.7-.7v.1c-.1.4-.8 1.8-1.4 3h-2.6c-.2-.5-.8-2.1-1.4-3.2v-.1h-.1l-1.5.7.1.1c.6 1 .9 1.7 1.2 2.5h-3.3c-.2-.5-.6-1.7-1.4-2.9v-.1l-1.5.7.2.3c.3.5.7 1.1 1 2h-3v5h1.7v-3.3h13.9v3.3h1.7v-5h-3.2M182.1 16.6l.1 4.8h1.2l-.2-4.8h-1.1M187.4 16.7l-.2 4.6h1.1l.1-4.6h-1M176.2 19.7l-.8 5.5 1.4.5.7-6-1.3-.1v.1"/><path class="st2" d="M181 14.9l-1.2.4.4 1.5h-2c.2-.3 3.8-6.4 3.8-6.4l-1.3-.6s-1.9 3.2-2.1 3.4c-.1-.1-.8-.7-.8-.8.1-.1 2.1-3.8 2.1-3.8l-1.3-.6v.1l-2.7 4.7s1.8 1.7 2 1.8c-.1.1-1.3 2.1-1.3 2.2h-.6l.1 1.7h2V27h1.6v-8.5h1l.2.7 1.2-.4c-.5-2-1.1-3.9-1.1-3.9"/><path class="st2" d="M181.4 19.5h-.1l-1.2.2.4 4 1.5-.3-.6-3.9"/><path class="st2" d="M191.7 25c-.2-.5-.4-1.2-.7-2.7 1-1.8 1.6-3.5 2.1-5.6v-.1l-1.4-.9v.1c-.3 1.4-.7 3-1.2 4.1-.2-1.8-.3-3.9-.3-5.2h3.1v-1.6h-3.1V7.8h-1.6V8c0 2.4 0 3.2.1 4.9v.3h-2.6v-2h2.1V9.7h-2.1V7.9h-1.6v1.8h-2.1v1.6h2.1v2h-2.8v1.6h2V24c-.1 0-3 .4-3 .4l.3 1.6s3.8-.5 5.6-.8c0 0-.3.2-.7.5l-.1.1 1.2 1.3h.1c.6-.4 1.5-1.1 2.7-2.7 0 .1.1.2.1.2.4 1.4.8 2.5 1.7 2.5 0 0 .5 0 1.1-.1l1.6-4.2h-1.6c0-.1-.9 2.1-1 2.2m-4.8-10.2h1.8v.4c.1 2.2.2 4.9.7 7 0 0-.3.7-.9 1.3v-.3s-1.3.3-1.5.3c-.1-.2-.1-8.5-.1-8.7zm-1.2 0v8.8c-.1 0-.6.1-.8.1v-9c.1.1.6.1.8.1z"/><path class="st2" d="M193.4 12l-1.6-3.3h-.1l-1.4.6 1.6 3.5 1.5-.8M201 19.6l-.8 5.5 1.6.6.7-6-1.5-.2v.1"/><path class="st2" d="M206.6 14.9l-1.2.4.3 1.5h-2.5c.2-.3 3.8-6.4 3.8-6.4l-1.5-.6s-1.9 3.2-2 3.4c-.1-.1-.9-.8-1-.9.1-.1 2.2-3.7 2.2-3.7l-1.3-.6v.1l-2.8 4.7s2 1.8 2.2 1.9c-.1.1-1.3 2-1.3 2.1h-1l.2 1.7h2.6V27h1.8v-8.5h1l.1.6 1.3-.3c-.3-2-.9-3.9-.9-3.9"/><path class="st2" d="M207.3 19.5h-.1l-1.3.2.4 4 1.6-.3-.6-3.9M215.3 8.7l-1.5-.3s-1.1 3.3-1.2 3.4h-2.4c.3-.6.7-1.5 1.3-3.1l-1.8-.4c-1.2 3.6-1.9 4.5-2.9 5.7l.9 1.6s.4-.4.7-.8V27h1.7v-.6h7.8v-1.5-.1h-3.6v-2.5h3.1v-1.7h-3.1v-2.7h3.1v-1.8h-3.1v-2.6h3.5v-1.7h-3.5c0-.3 1-3.1 1-3.1m-2.8 13.7v2.5h-2.6v-2.5h2.6zm0-4.5v2.7h-2.6v-2.7h2.6zm0-4.4v2.6h-2.6v-2.6h2.6zM86.1 38.1h1.4c-.2-.4-2.2-3.7-2.2-3.7s1.8-2.3 2.1-2.7h-1.5c-.1.1-1.5 2.1-1.5 2.1l-.4.8-.3.4v-3.3h-1.2v6.4h1.2V36l.7-.9s1.6 2.8 1.7 3M93 31.7c-.1.2-.6 1.5-.6 1.5l-.5 1.3-.2.3-.6-1.6s-.6-1.4-.6-1.5h-1.4c.2.4 2 3.7 2 3.7V38h1.2v-2.7s1.9-3.3 2.1-3.7c-.4.1-1.3.1-1.4.1M98.7 31.6c-1.8 0-3.1 1.4-3.1 3.3s1.2 3.2 3 3.2c1.9 0 3.1-1.3 3.1-3.4.1-1.5-.9-3.1-3-3.1m0 5.7c-1 0-1.8-1-1.8-2.4s.7-2.4 1.8-2.4c1 0 1.7 1 1.7 2.4s-.6 2.4-1.7 2.4zM108 31.7h-4.8v1h1.8v5.4h1.2v-5.4h1.8v-1M112.5 31.6c-1.8 0-3.1 1.4-3.1 3.3s1.2 3.2 3 3.2c1.9 0 3.1-1.3 3.1-3.4.1-1.5-.9-3.1-3-3.1m0 5.7c-1 0-1.8-1-1.8-2.4s.7-2.4 1.8-2.4c1 0 1.7 1 1.7 2.4s-.6 2.4-1.7 2.4zM122 38.1v-6.4h-1.2v6.4h1.2M142.6 31.7h-4.8v1h1.8v5.4h1.2v-5.4h1.8v-1M145.9 38.1v-6.4h-1.2v6.4h1.2M152.7 31.7h-4.8v1h1.8v5.4h1.2v-5.4h1.8v-1M159.9 31.7h-1.2v3.7c0 1.5-.7 1.9-1.4 1.9-.5 0-1.3-.2-1.3-1.9v-3.7h-1.2v3.6c0 1.9.8 2.9 2.5 2.9s2.6-1 2.6-2.9v-3.6M166.8 31.7H162v1h1.8v5.4h1.2v-5.4h1.8v-1M172.5 35.3v-.9h-2.4v-1.7h2.6v-1h-3.8v6.4h3.9v-1h-2.7v-1.8h2.4M181 31.6c-1.8 0-3.1 1.4-3.1 3.3s1.2 3.2 3 3.2c1.9 0 3.1-1.3 3.1-3.4 0-1.5-.9-3.1-3-3.1m0 5.7c-1 0-1.7-1-1.7-2.4s.7-2.4 1.7-2.4 1.7 1 1.7 2.4-.7 2.4-1.7 2.4zM189.9 34.5h-2.4v-1.8h2.5v-1h-3.8v6.4h1.2v-2.7h2.4c.1-.2.1-.7.1-.9M199.5 31.7h-4.8v1h1.8v5.4h1.2v-5.4h1.8v-1M205.2 35.3v-.9h-2.4v-1.7h2.6v-1h-3.8v6.4h3.9v-1h-2.7v-1.8h2.4M219.8 38.1v-6.4h-1.2v2.6h-2.7v-2.6h-1.2v6.4h1.2v-2.8h2.7v2.8h1.2M127.4 35.6s1.3 2.3 1.4 2.5h1.4v-6.4h-1.1v1.8c0 1.1 0 2.7.1 3.5-.3-.8-1-2.3-1.4-2.9 0 0-1.3-2.2-1.3-2.4H125v6.4h1.1v-1.9c0-1.6 0-2.6-.1-3.7.5 1.5 1 2.5 1.4 3.1M224.9 35.6s1.3 2.3 1.4 2.5h1.4v-6.4h-1.1v1.8c0 1.1 0 2.7.1 3.5-.3-.8-1-2.3-1.4-2.9 0 0-1.3-2.2-1.3-2.4h-1.5v6.4h1.1v-1.9c0-1.6 0-2.6-.1-3.7.6 1.5 1.1 2.5 1.4 3.1M232.9 31.6c-1.8 0-3.1 1.4-3.1 3.3s1.2 3.2 3 3.2c1.9 0 3.1-1.3 3.1-3.4 0-1.5-.9-3.1-3-3.1m0 5.7c-1 0-1.8-1-1.8-2.4s.7-2.4 1.8-2.4c1 0 1.7 1 1.7 2.4s-.7 2.4-1.7 2.4zM238.2 31.7v6.4h3.9v-1h-2.6v-5.4h-1.3M246.6 31.6c-1.8 0-3.1 1.4-3.1 3.3s1.2 3.2 3 3.2c1.9 0 3.1-1.3 3.1-3.4 0-1.5-.9-3.1-3-3.1m-.1 5.7c-1 0-1.8-1-1.8-2.4s.7-2.4 1.8-2.4c1 0 1.7 1 1.7 2.4.1 1.4-.6 2.4-1.7 2.4zM263 31.7c-.1.2-.6 1.5-.6 1.5l-.5 1.3-.1.3-.6-1.6s-.6-1.4-.6-1.5h-1.4c.2.4 2 3.7 2 3.7V38h1.2v-2.7s1.9-3.3 2.1-3.7c-.5.1-1.4.1-1.5.1M134.7 34.4c-.8-.3-1.3-.5-1.3-1.1 0-.4.3-.8 1.1-.8.6 0 1 .1 1.3.3v-1c-.4-.1-.8-.2-1.3-.2-1.4 0-2.4.7-2.4 1.8 0 .8.6 1.4 1.7 1.8.7.3 1.2.5 1.2 1.1 0 .5-.4.9-1.2.9-.7 0-1.3-.2-1.6-.4v1.1c.4.1.9.3 1.5.3 1.9 0 2.5-1 2.5-1.9.1-.9-.4-1.5-1.5-1.9M212.2 37c-.3.1-.7.2-1.2.2-1.4 0-2.3-.9-2.3-2.3s.9-2.3 2.2-2.3c.5 0 .9.1 1.2.2v-1c-.3-.1-.7-.2-1.2-.2-2.1 0-3.5 1.4-3.5 3.4s1.3 3.2 3.3 3.2c.6 0 1-.1 1.4-.2v-1M256.9 34.6h-2v.9h1v1.6h-.1c-.1.1-.4.1-.8.1-1.4 0-2.2-.9-2.2-2.3s.9-2.3 2.3-2.3c.6 0 1 .1 1.4.2v-1c-.3-.1-.8-.2-1.4-.2-2.2 0-3.6 1.3-3.6 3.3 0 .9.3 1.8.9 2.3.6.6 1.4.8 2.6.8.7 0 1.4-.1 1.9-.3v-3.1"/></svg>